<?xml version="1.0" encoding="UTF-8" standalone="no"?><!DOCTYPE svg PUBLIC "-//W3C//DTD SVG 1.1//EN" "http://www.w3.org/Graphics/SVG/1.1/DTD/svg11.dtd"><svg width="100%" height="100%" viewBox="0 0 156 148" version="1.1" xmlns="http://www.w3.org/2000/svg" xmlns:xlink="http://www.w3.org/1999/xlink" xml:space="preserve" xmlns:serif="http://www.serif.com/" style="fill-rule:evenodd;clip-rule:evenodd;stroke-linejoin:round;stroke-miterlimit:1.41421;"><path d="M131.384,117.547c-12.373,16.093 -31.692,26.453 -53.384,26.453c-37.309,0 -67.6,-30.649 -67.6,-68.4c0,-37.751 30.291,-68.4 67.6,-68.4c12.465,0 24.147,3.421 34.178,9.386l-16.052,21.226c-5.478,-2.698 -11.629,-4.212 -18.126,-4.212c-22.909,0 -41.509,18.82 -41.509,42c0,23.18 18.6,42 41.509,42c12.568,0 23.838,-5.664 31.453,-14.604l21.931,14.551Zm-9.874,-94.28c14.727,12.551 24.09,31.344 24.09,52.333c0,11.678 -2.899,22.676 -8.007,32.298l-21.958,-14.57c2.485,-5.387 3.874,-11.395 3.874,-17.728c0,-12.449 -5.364,-23.639 -13.879,-31.333l15.88,-21Z" style="fill:#fff;"/></svg>